<svg xmlns="http://www.w3.org/2000/svg" viewBox="0 0 31.5 31.46" enable-background="new 0 0 31.5 31.46"><path d="M-677-632.31v2066m15.75-2066v2066m15.74-2066v2066m15.75-2066v2066m15.75-2066v2066m15.75-2066v2066m15.75-2066v2066m15.74-2066v2066m15.75-2066v2066m15.75-2066v2066m15.75-2066v2066m15.75-2066v2066m15.74-2066v2066m15.75-2066v2066m15.75-2066v2066m15.75-2066v2066m15.75-2066v2066m15.74-2066v2066m15.75-2066v2066m15.75-2066v2066m15.75-2066v2066m15.75-2066v2066m15.74-2066v2066m15.75-2066v2066m15.75-2066v2066m15.75-2066v2066m15.75-2066v2066m15.74-2066v2066m15.75-2066v2066m15.75-2066v2066m15.75-2066v2066m15.75-2066v2066m15.74-2066v2066m15.75-2066v2066m15.75-2066v2066m15.75-2066v2066m15.75-2066v2066m15.74-2066v2066m15.75-2066v2066m15.75-2066v2066m15.75-2066v2066m15.75-2066v2066m15.74-2066v2066m15.75-2066v2066m15.75-2066v2066m15.75-2066v2066m15.75-2066v2066m15.74-2066v2066m15.75-2066v2066m15.75-2066v2066m15.75-2066v2066m15.75-2066v2066m15.74-2066v2066m15.75-2066v2066m15.75-2066v2066m15.75-2066v2066m15.75-2066v2066m15.75-2066v2066m15.74-2066v2066m15.75-2066v2066m15.75-2066v2066m15.75-2066v2066m15.75-2066v2066m15.74-2066v2066m15.75-2066v2066m15.75-2066v2066m15.75-2066v2066m15.75-2066v2066m15.74-2066v2066m15.75-2066v2066m15.75-2066v2066m15.75-2066v2066m15.75-2066v2066m15.74-2066v2066m15.75-2066v2066m15.75-2066v2066m15.75-2066v2066m15.75-2066v2066m15.74-2066v2066m15.75-2066v2066m15.75-2066v2066m15.75-2066v2066m15.75-2066v2066m15.74-2066v2066m15.75-2066v2066m15.75-2066v2066m15.75-2066v2066m15.75-2066v2066m15.74-2066v2066m15.75-2066v2066m15.75-2066v2066m15.75-2066v2066m15.75-2066v2066m15.74-2066v2066m15.75-2066v2066m15.75-2066v2066m15.75-2066v2066m15.75-2066v2066m15.74-2066v2066m15.75-2066v2066m15.75-2066v2066m15.75-2066v2066m15.75-2066v2066m15.74-2066v2066m15.75-2066v2066m15.75-2066v2066m15.75-2066v2066m15.75-2066v2066m15.74-2066v2066m15.75-2066v2066m15.75-2066v2066m15.75-2066v2066m15.75-2066v2066m15.74-2066v2066m15.75-2066v2066m15.75-2066v2066m15.75-2066v2066m15.75-2066v2066m15.74-2066v2066m15.75-2066v2066m15.75-2066v2066m15.75-2066v2066m15.75-2066v2066m15.75-2066v2066m15.74-2066v2066m15.75-2066v2066m15.75-2066v2066m15.75-2066v2066m-2138.27-268.2h2066m-2066-15.75h2066m-2066-15.75h2066m-2066-15.75h2066m-2066-15.75h2066m-2066-15.74h2066m-2066-15.75h2066m-2066-15.75h2066m-2066-15.75h2066m-2066-15.75h2066m-2066-15.74h2066m-2066-15.75h2066m-2066-15.75h2066m-2066-15.75h2066m-2066-15.75h2066m-2066-15.74h2066m-2066-15.75h2066m-2066-15.75h2066m-2066-15.75h2066m-2066-15.75h2066m-2066-15.74h2066m-2066-15.75h2066m-2066-15.75h2066m-2066-15.75h2066m-2066-15.75h2066m-2066-15.74h2066m-2066-15.75h2066m-2066-15.75h2066m-2066-15.75h2066m-2066-15.75h2066m-2066-15.75h2066m-2066-15.74h2066m-2066-15.75h2066m-2066-15.75h2066m-2066-15.75h2066m-2066-15.75h2066m-2066-15.74h2066m-2066-15.75h2066m-2066-15.75h2066m-2066-15.75h2066m-2066-15.75h2066m-2066-15.74h2066m-2066-15.75h2066m-2066-15.75h2066m-2066-15.75h2066m-2066-15.75h2066m-2066-15.74h2066m-2066-15.75h2066m-2066-15.75h2066m-2066-15.75h2066m-2066-15.75h2066m-2066-15.74h2066m-2066-15.75h2066m-2066-15.75h2066m-2066-15.75h2066m-2066-15.75h2066m-2066-15.74h2066m-2066-15.75h2066m-2066-15.75h2066m-2066-15.75h2066m-2066-15.75h2066m-2066-15.74h2066m-2066-15.75h2066m-2066-15.75h2066m-2066-15.75h2066m-2066-15.75h2066m-2066-15.74h2066m-2066-15.75h2066m-2066-15.75h2066m-2066-15.75h2066m-2066-15.75h2066m-2066-15.74h2066m-2066-15.75h2066m-2066-15.75h2066m-2066-15.75h2066m-2066-15.75h2066m-2066-15.74h2066m-2066-15.75h2066m-2066-15.75h2066m-2066-15.75h2066m-2066-15.75h2066m-2066-15.74h2066m-2066-15.75h2066m-2066-15.75h2066m-2066-15.75h2066m-2066-15.75h2066m-2066-15.74h2066m-2066-15.75h2066m-2066-15.75h2066m-2066-15.75h2066m-2066-15.75h2066m-2066-15.75h2066m-2066-15.74h2066m-2066-15.75h2066m-2066-15.75h2066m-2066-15.75h2066m-2066-15.75h2066m-2066-15.74h2066m-2066-15.75h2066m-2066-15.75h2066m-2066-15.75h2066m-2066-15.75h2066m-2066-15.74h2066m-2066-15.75h2066m-2066-15.75h2066m-2066-15.75h2066m-2066-15.75h2066m-2066-15.74h2066m-2066-15.75h2066m-2066-15.75h2066m-2066-15.75h2066m-2066-15.75h2066m-2066-15.74h2066m-2066-15.75h2066m-2066-15.75h2066m-2066-15.75h2066m-2066-15.75h2066m-2066-15.74h2066m-2066-15.75h2066m-2066-15.75h2066m-2066-15.75h2066m-2066-15.75h2066m-2066-15.74h2066m-2066-15.75h2066m-2066-15.75h2066m-2066-15.75h2066m-2066-15.75h2066m-2066-15.74h2066" opacity=".1" stroke="#fff" stroke-width=".25" stroke-miterlimit="10" fill="none"/></svg>