<?xml version="1.0" encoding="iso-8859-1"?>
<!-- Generator: Adobe Illustrator 18.1.1, SVG Export Plug-In . SVG Version: 6.00 Build 0)  -->
<svg version="1.1" id="Capa_1" xmlns="http://www.w3.org/2000/svg" xmlns:xlink="http://www.w3.org/1999/xlink" x="0px" y="0px"
	 viewBox="0 0 71.577 71.577" style="enable-background:new 0 0 71.577 71.577;" xml:space="preserve">
<g>
	<g>
		<path style="fill:#010002;" d="M0,0.753v46.525h57.258c0,2.756,2.298,2.756,3.965,2.756c2.083,0,2.931,0.154,2.931,1.714h1.034
			C65.189,49,62.891,49,61.223,49c-2.083,0-2.931-0.154-2.931-1.718h13.285V0.757H0V0.753z"/>
		<polygon style="fill:#010002;" points="25.052,51.383 17.894,58.541 53.683,58.541 46.525,51.383 		"/>
		<path style="fill:#010002;" d="M66.592,51.748c0.093,0.301,0.147,0.623,0.147,0.963v4.499c0,1.417-0.93,2.58-2.061,2.58
			c-1.138,0-2.069-1.16-2.069-2.58v-4.502c0-0.34,0.054-0.666,0.147-0.959c-2.852,0.755-4.985,3.343-4.985,6.424v5.987
			c0,3.665,3.006,6.664,6.667,6.664h0.465c3.668,0,6.667-2.999,6.667-6.664v-5.987C71.577,55.091,69.444,52.507,66.592,51.748z"/>
		<ellipse style="fill:#010002;" cx="64.677" cy="54.959" rx="1.034" ry="2.072"/>
	</g>
</g>
<g>
</g>
<g>
</g>
<g>
</g>
<g>
</g>
<g>
</g>
<g>
</g>
<g>
</g>
<g>
</g>
<g>
</g>
<g>
</g>
<g>
</g>
<g>
</g>
<g>
</g>
<g>
</g>
<g>
</g>
</svg>
