<?xml version="1.0" encoding="utf-8"?>
<!-- Generator: Adobe Illustrator 19.0.1, SVG Export Plug-In . SVG Version: 6.00 Build 0)  -->
<svg version="1.1" id="Layer_1" xmlns="http://www.w3.org/2000/svg" xmlns:xlink="http://www.w3.org/1999/xlink" x="0px" y="0px"
	 viewBox="163 -164 512 512" style="enable-background:new 163 -164 512 512;" xml:space="preserve">
<style type="text/css">
	.st0{fill:#0D00B9;}
</style>
<path class="st0" d="M448.8,97.7c-0.8-2.4-2.3-4.9-4.5-6.4c-4.2-2.8-9.1-4.3-13.8-5.9c-1.1-0.4-2.3-0.8-3.3-1.5
	c-0.9-0.6-1.3-1.7-1.5-2.7c-0.1-0.5-0.1-1.1-0.2-1.6c3.4-4.7,5.7-12.3,5.7-18.6c0-9.8-5.5-12.5-12.4-12.5c-6.8,0-12.4,2.7-12.4,12.5
	c0,6.5,2.4,14.5,6.1,19.1c0,0.4-0.1,0.7-0.1,1.1c-0.2,1-0.6,2.1-1.5,2.7c-1.1,0.6-2.2,1-3.3,1.4c-4.7,1.6-9.6,3-13.8,5.8
	c-2.2,1.4-3.7,4.1-4.5,6.5c-0.8,2.5-1.2,5.7-1.1,8.2H419h30.9C449.9,103.4,449.6,100.3,448.8,97.7z"/>
</svg>
