<?xml version="1.0" encoding="utf-8"?>
<!-- Generator: Adobe Illustrator 16.0.0, SVG Export Plug-In . SVG Version: 6.00 Build 0)  -->
<!DOCTYPE svg PUBLIC "-//W3C//DTD SVG 1.1//EN" "http://www.w3.org/Graphics/SVG/1.1/DTD/svg11.dtd">
<svg version="1.1" id="Layer_1" xmlns="http://www.w3.org/2000/svg" xmlns:xlink="http://www.w3.org/1999/xlink" x="0px" y="0px"
	 width="512px" height="512px" viewBox="0 0 512 512" enable-background="new 0 0 512 512" xml:space="preserve">
<path d="M-612,320v96h96v-96H-612z M-529,403h-70v-70h70V403z"/>
<path fill="#020202" d="M231.183,162.282c71.806-7.81,146.369,18.658,197.183,69.968c7.939,9.07,6.95,23.901-1.872,32.053
	c-8.046,9.847-24.265,10.952-33.383,2.023c-32.534-32.074-76.518-52.439-122.126-55.773c-55.387-4.595-111.974,16.42-151.41,55.444
	c-9.095,9.612-26.033,8.519-34.219-1.708c-8.822-8.327-9.553-23.559-1.084-32.381C123.356,192.802,176.209,167.924,231.183,162.282z
	"/>
<path fill="#020202" d="M241.796,252.97c45.313-4.499,92.16,12.852,123.692,45.669c8.634,8.986,7.634,24.454-1.461,32.77
	c-8.257,9.966-24.807,10.638-33.782,1.296c-17.773-18.245-42.394-29.777-67.884-31.168c-28.929-2.062-58.2,9.365-78.743,29.695
	c-5.054,5.679-12.558,9.165-20.237,8.259c-17.833-1.25-30.213-25.056-17.928-39.344C170.26,273.243,205.492,256.575,241.796,252.97z
	"/>
<path fill="#020202" d="M248.781,337.651c29.201-4.9,58.837,19.213,59.78,48.824c2.709,29.036-22.923,56.589-52.063,55.951
	c-26.197,0.907-50.476-20.825-52.772-46.881C199.991,368.194,221.382,340.808,248.781,337.651z"/>
</svg>
