<?xml version="1.0" encoding="utf-8"?>
<!-- Generator: Adobe Illustrator 19.0.1, SVG Export Plug-In . SVG Version: 6.00 Build 0)  -->
<svg version="1.1" id="Layer_1" xmlns="http://www.w3.org/2000/svg" xmlns:xlink="http://www.w3.org/1999/xlink" x="0px" y="0px"
	 viewBox="163 -164 512 512" style="enable-background:new 163 -164 512 512;" xml:space="preserve">
<style type="text/css">
	.st0{fill:#00B911;}
</style>
<path d="M-286-8v96h96V-8H-286z M-203,75h-70V5h70V75z"/>
<path class="st0" d="M385.2-47.4c71.8-7.8,146.4,18.7,197.2,70c7.9,9.1,7,23.9-1.9,32.1c-8,9.8-24.3,11-33.4,2
	C514.6,24.6,470.6,4.2,425,0.9c-55.4-4.6-112,16.4-151.4,55.4c-9.1,9.6-26,8.5-34.2-1.7c-8.8-8.3-9.6-23.6-1.1-32.4
	C277.4-16.9,330.2-41.8,385.2-47.4z"/>
<path class="st0" d="M395.8,43.3C441.1,38.8,488,56.2,519.5,89c8.6,9,7.6,24.5-1.5,32.8c-8.3,10-24.8,10.6-33.8,1.3
	c-17.8-18.2-42.4-29.8-67.9-31.2c-28.9-2.1-58.2,9.4-78.7,29.7c-5.1,5.7-12.6,9.2-20.2,8.3c-17.8-1.2-30.2-25.1-17.9-39.3
	C324.3,63.5,359.5,46.9,395.8,43.3z"/>
<path class="st0" d="M402.8,128c29.2-4.9,58.8,19.2,59.8,48.8c2.7,29-22.9,56.6-52.1,56c-26.2,0.9-50.5-20.8-52.8-46.9
	C354,158.5,375.4,131.1,402.8,128z"/>
</svg>
